<svg width="100%" height="100%" id="svg" viewBox="0 0 1440 690" xmlns="http://www.w3.org/2000/svg" class="transition duration-300 ease-in-out delay-150"><defs><linearGradient id="gradient" x1="90%" y1="20%" x2="10%" y2="80%"><stop offset="5%" stop-color="#8ed1fc"></stop><stop offset="95%" stop-color="#7bdcb5"></stop></linearGradient></defs><path d="M 0,700 C 0,700 0,175 0,175 C 55.484572697003344,205.054655321248 110.96914539400669,235.10931064249598 162,238 C 213.0308546059933,240.89068935750402 259.60799112097664,216.61741275126403 307,184 C 354.39200887902336,151.38258724873597 402.5988901220866,110.42103835244791 459,124 C 515.4011098779134,137.5789616475521 579.996448390677,205.69843383894437 635,226 C 690.003551609323,246.30156616105563 735.4153163152052,218.7852262917746 783,203 C 830.5846836847948,187.2147737082254 880.342286348502,183.16066099395732 943,190 C 1005.657713651498,196.83933900604268 1081.215538290788,214.5721297323961 1141,215 C 1200.784461709212,215.4278702676039 1244.7955604883464,198.55082007645825 1292,189 C 1339.2044395116536,179.44917992354175 1389.6022197558268,177.22458996177087 1440,175 C 1440,175 1440,700 1440,700 Z" stroke="none" stroke-width="0" fill="url(#gradient)" fill-opacity="0.4" class="transition-all duration-300 ease-in-out delay-150 path-0"></path><defs><linearGradient id="gradient" x1="90%" y1="20%" x2="10%" y2="80%"><stop offset="5%" stop-color="#8ed1fc"></stop><stop offset="95%" stop-color="#7bdcb5"></stop></linearGradient></defs><path d="M 0,700 C 0,700 0,350 0,350 C 38.559477124183005,382.03704525835496 77.11895424836601,414.0740905167099 136,396 C 194.881045751634,377.9259094832901 274.08366013071895,309.7406831915156 330,297 C 385.91633986928105,284.2593168084844 418.5464052287582,326.9631767172278 470,353 C 521.4535947712418,379.0368232827722 591.7307189542483,388.40660993957334 652,397 C 712.2692810457517,405.59339006042666 762.5307189542484,413.41038352447896 805,398 C 847.4692810457516,382.58961647552104 882.1464052287581,343.9518559625108 938,342 C 993.8535947712419,340.0481440374892 1070.8836601307191,374.7821926254779 1125,385 C 1179.1163398692809,395.2178073745221 1210.3189542483658,380.91937353557773 1259,371 C 1307.6810457516342,361.08062646442227 1373.840522875817,355.54031323221113 1440,350 C 1440,350 1440,700 1440,700 Z" stroke="none" stroke-width="0" fill="url(#gradient)" fill-opacity="0.53" class="transition-all duration-300 ease-in-out delay-150 path-1"></path><defs><linearGradient id="gradient" x1="90%" y1="20%" x2="10%" y2="80%"><stop offset="5%" stop-color="#8ed1fc"></stop><stop offset="95%" stop-color="#7bdcb5"></stop></linearGradient></defs><path d="M 0,700 C 0,700 0,525 0,525 C 46.178862991737574,520.2705389073868 92.35772598347515,515.5410778147736 150,509 C 207.64227401652485,502.4589221852263 276.74795905783697,494.106227648292 324,508 C 371.25204094216303,521.893772351708 396.6504377851769,558.0340115920582 453,569 C 509.3495622148231,579.9659884079418 596.6502898014553,565.7577259834752 664,546 C 731.3497101985447,526.2422740165248 778.7484030090023,500.93508447404116 828,493 C 877.2515969909977,485.06491552595884 928.3560981625355,494.5019361203601 979,494 C 1029.6439018374645,493.4980638796399 1079.8272043408558,483.05717104451855 1124,498 C 1168.1727956591442,512.9428289554814 1206.335084474041,553.2693797015661 1258,562 C 1309.664915525959,570.7306202984339 1374.8324577629796,547.865310149217 1440,525 C 1440,525 1440,700 1440,700 Z" stroke="none" stroke-width="0" fill="url(#gradient)" fill-opacity="1" class="transition-all duration-300 ease-in-out delay-150 path-2"></path></svg>