<?xml version="1.0" standalone="no"?><!DOCTYPE svg PUBLIC "-//W3C//DTD SVG 1.1//EN" "http://www.w3.org/Graphics/SVG/1.1/DTD/svg11.dtd"><svg t="1702907025755" class="icon" viewBox="0 0 1024 1024" version="1.1" xmlns="http://www.w3.org/2000/svg" p-id="6530" xmlns:xlink="http://www.w3.org/1999/xlink" width="200" height="200"><path d="M208 336h256v32H208zM208 688h288v32H208z" p-id="6531" fill="#409eff"></path><path d="M960 412.64V368l-144 144V304L640 64H80a16 16 0 0 0-16 16v672h32V96h528l153.76 208H608v-112h-32v128a16 16 0 0 0 16 16h192v208l-140.48 140.16s-32.96 105.12-34.72 112a18.4 18.4 0 0 0 23.52 23.52c8.16-2.24 113.12-34.24 113.12-34.24l38.56-38.4V928H64v16a16 16 0 0 0 16 16h736V715.04l144-144v-46.4L729.76 756l-86.08 29.6 29.6-86.24z" p-id="6532" fill="#409eff"></path><path d="M208 512h464v32H208z" p-id="6533" fill="#409eff"></path></svg>